<?xml version="1.0" standalone="no"?>
<!DOCTYPE svg PUBLIC "-//W3C//DTD SVG 20010904//EN"
 "http://www.w3.org/TR/2001/REC-SVG-20010904/DTD/svg10.dtd">
<svg version="1.0" xmlns="http://www.w3.org/2000/svg"
 width="180.000000pt" height="109.000000pt" viewBox="0 0 180.000000 109.000000"
 preserveAspectRatio="xMidYMid meet">

<g transform="translate(0.000000,109.000000) scale(0.100000,-0.100000)"
fill="#000000" stroke="none">
<path d="M563 1050 c-105 -60 -145 -171 -108 -297 18 -59 82 -124 143 -144 21
-6 41 -15 47 -20 13 -13 69 -11 83 3 16 16 15 63 -2 77 -8 7 -31 11 -53 10
-78 -5 -143 56 -151 142 -2 27 1 62 8 79 18 43 83 98 125 106 78 14 164 -36
189 -111 25 -71 71 -73 90 -5 13 44 67 96 115 111 53 16 104 4 147 -33 61 -54
68 -76 74 -248 l5 -155 30 0 30 0 0 176 0 176 -30 49 c-21 33 -48 60 -85 82
-47 28 -63 32 -122 32 -77 0 -150 -29 -186 -74 l-19 -25 -28 29 c-47 49 -102
70 -181 70 -58 0 -77 -5 -121 -30z"/>
<path d="M1266 504 c-34 -34 -9 -94 39 -94 25 0 55 33 55 61 0 41 -64 63 -94
33z"/>
<path d="M413 245 c-15 -10 -23 -26 -23 -45 0 -16 -4 -32 -10 -35 -5 -3 -10
-15 -10 -26 0 -10 5 -19 10 -19 6 0 10 -25 10 -55 0 -42 3 -55 15 -55 12 0 15
13 15 55 0 42 3 55 15 55 8 0 15 9 15 20 0 11 -7 20 -15 20 -18 0 -20 34 -2
48 6 5 21 12 32 14 11 2 20 10 20 18 0 21 -45 24 -72 5z"/>
<path d="M530 205 c0 -25 -4 -45 -10 -45 -5 0 -10 -7 -10 -15 0 -8 5 -15 10
-15 6 0 10 -27 10 -60 0 -53 2 -60 20 -60 18 0 20 7 20 60 0 47 3 60 15 60 8
0 15 7 15 15 0 8 -7 15 -15 15 -11 0 -15 12 -15 45 0 38 -3 45 -20 45 -17 0
-20 -7 -20 -45z"/>
<path d="M1180 130 c0 -112 1 -120 19 -120 12 0 21 8 23 21 l3 21 27 -21 c14
-12 39 -21 55 -21 l28 1 -42 37 -43 37 37 38 38 37 -31 0 c-18 0 -37 -7 -44
-15 -22 -27 -30 -16 -30 45 0 53 -2 60 -20 60 -19 0 -20 -7 -20 -120z"/>
<path d="M25 154 c-23 -23 -15 -57 18 -72 15 -7 27 -17 27 -21 0 -15 -13 -21
-24 -11 -7 5 -18 5 -26 0 -21 -13 6 -40 39 -40 34 0 51 17 51 50 0 30 -17 50
-42 50 -10 0 -18 5 -18 10 0 6 11 10 25 10 28 0 34 24 9 34 -25 10 -42 7 -59
-10z"/>
<path d="M186 149 c-20 -16 -26 -29 -26 -60 0 -52 27 -79 80 -79 49 0 80 30
80 77 0 70 -78 106 -134 62z m82 -31 c33 -33 -6 -91 -47 -69 -27 15 -32 35
-15 60 17 23 44 27 62 9z"/>
<path d="M678 163 c-28 -4 -28 -5 -28 -79 0 -67 2 -74 19 -74 17 0 20 8 23 51
3 55 21 78 52 66 12 -5 16 -20 16 -62 0 -48 3 -55 19 -55 17 0 20 8 23 51 3
55 21 78 52 66 12 -5 16 -20 16 -62 0 -48 2 -55 20 -55 18 0 20 7 20 58 0 48
-4 62 -23 80 -26 24 -57 28 -89 11 -14 -8 -23 -8 -31 0 -11 11 -36 12 -89 4z"/>
<path d="M985 145 c-33 -32 -34 -83 -2 -113 18 -17 36 -22 80 -22 l57 0 0 74
0 73 -37 7 c-61 10 -73 7 -98 -19z m83 -27 c19 -19 14 -56 -8 -68 -27 -15 -60
4 -60 33 0 41 41 62 68 35z"/>
<path d="M1385 145 c-53 -53 -20 -135 55 -135 21 0 41 4 44 9 8 12 -20 34 -33
27 -12 -8 -41 3 -41 15 0 5 25 9 56 9 l57 0 -7 33 c-13 65 -85 89 -131 42z
m83 -32 c2 -9 -7 -13 -27 -13 -30 0 -39 9 -24 24 11 10 46 3 51 -11z"/>
<path d="M1588 163 c-15 -4 -18 -16 -18 -79 0 -67 2 -74 20 -74 18 0 20 7 20
55 0 50 2 56 26 65 49 19 6 48 -48 33z"/>
<path d="M1705 154 c-23 -23 -15 -57 18 -72 15 -7 27 -20 27 -28 0 -16 -12
-18 -26 -4 -5 5 -15 6 -23 0 -22 -13 4 -40 38 -40 34 0 51 17 51 50 0 30 -17
50 -42 50 -31 0 -19 19 14 22 30 3 31 4 14 21 -22 21 -50 22 -71 1z"/>
</g>
</svg>
